#!OML:ASF F:\VICON\USERDATA\INSTALL\rory3\rory3.ASF
:FULLY-SPECIFIED
:DEGREES
335
root 2.01408 12.5456 6.09289 24.7406 30.3266 6.19909
lowerback 47.2763 3.5505 7.81924
upperback 14.3226 8.69727 5.06464
thorax -4.96989 4.30301 -2.02784
lowerneck -12.231 -12.1099 -15.9652
upperneck 19.9579 -14.9721 9.16002
head 10.3355 -7.12874 3.71984
rclavicle 3.49861e-014 -7.95139e-014
rhumerus 32.5516 -9.35533 -74.7201
rradius 14.4641
rwrist 54.926
rhand -50.9525 2.50117
rfingers 7.12502
rthumb -23.5031 -26.083
lclavicle 3.49861e-014 -7.95139e-014
lhumerus -26.3271 -43.8643 100.619
lradius 107.524
lwrist -13.5866
lhand -47.6123 18.1724
lfingers 7.12502
lthumb -20.2959 47.132
rfemur -96.78 -35.0379 32.5407
rtibia 106.107
rfoot -30.0734 2.73512
rtoes 0.305805
lfemur -88.7648 1.49992 -26.8548
ltibia 98.862
lfoot -27.8304 -7.62111
ltoes -6.49319
336
root 2.02278 12.5106 6.08924 24.6059 30.3141 6.13269
lowerback 47.2476 3.50696 7.90095
upperback 14.3327 8.68058 5.08041
thorax -4.94334 4.29871 -2.04131
lowerneck -12.2079 -12.0827 -15.9468
upperneck 19.9288 -14.9309 9.11501
head 10.3094 -7.1142 3.70983
rclavicle 1.27222e-014 3.33958e-014
rhumerus 32.2813 -8.50788 -73.9756
rradius 14.6364
rwrist 53.818
rhand -51.2142 3.03847
rfingers 7.12502
rthumb -23.754 -25.5134
lclavicle 1.27222e-014 3.33958e-014
lhumerus -26.3468 -43.8232 100.648
lradius 107.526
lwrist -13.5215
lhand -47.2755 17.7891
lfingers 7.12502
lthumb -19.9721 46.7827
rfemur -96.9094 -35.1262 32.551
rtibia 106.413
rfoot -30.0935 2.83518
rtoes 0.572549
lfemur -88.8664 1.49666 -26.7821
ltibia 99.1705
lfoot -27.8202 -8.26897
ltoes -3.37446
337
root 2.02933 12.4866 6.08292 24.4987 30.2492 6.1618
lowerback 47.2953 3.48418 7.88466
upperback 14.3618 8.64874 5.06416
thorax -4.92306 4.28667 -2.03747
lowerneck -12.2852 -12.0648 -15.6891
upperneck 19.8016 -14.877 8.8153
head 10.2216 -7.10029 3.57227
rclavicle 1.08139e-013 -6.91771e-014
rhumerus 32.1898 -8.68089 -74.1511
rradius 14.9263
rwrist 53.9926
rhand -51.4451 3.75056
rfingers 7.12502
rthumb -23.9755 -24.7723
lclavicle 1.08139e-013 -6.91771e-014
lhumerus -26.2744 -43.7934 100.616
lradius 107.485
lwrist -13.3225
lhand -46.9674 16.8717
lfingers 7.12502
lthumb -19.676 45.8959
rfemur -96.9562 -35.1962 32.4373
rtibia 106.633
rfoot -30.101 2.93284
rtoes 0.793777
lfemur -88.8548 1.48327 -26.7945
ltibia 99.3798
lfoot -27.5081 -8.69757
ltoes -1.68391
338
root 2.03505 12.4676 6.07385 24.3789 30.1656 6.14553
lowerback 47.3942 3.4377 7.87782
upperback 14.3809 8.59648 5.03463
thorax -4.92347 4.26373 -2.04641
lowerneck -12.38 -12.016 -15.5125
upperneck 19.662 -14.7846 8.61164
head 10.1435 -7.06548 3.48669
rclavicle -7.31528e-014 -3.18055e-015
rhumerus 32.1784 -8.63086 -74.2247
rradius 15.1743
rwrist 54.1587
rhand -51.5797 4.20034
rfingers 7.12502
rthumb -24.1045 -24.3055
lclavicle -7.31528e-014 -3.18055e-015
lhumerus -26.1344 -43.6758 100.512
lradius 107.528
lwrist -13.1308
lhand -46.8997 16.1833
lfingers 7.12502
lthumb -19.6108 45.2142
rfemur -97.0208 -35.1681 32.3389
rtibia 106.788
rfoot -30.0562 2.9173
rtoes 0.873269
lfemur -88.8866 1.51345 -26.8722
ltibia 99.6452
lfoot -27.3875 -8.37084
ltoes -2.80234
339
root 2.04312 12.4484 6.06652 24.2446 30.1376 5.99498
lowerback 47.4275 3.38904 8.00505
upperback 14.3445 8.59689 5.02569
thorax -4.95236 4.26377 -2.1195
lowerneck -12.433 -11.9858 -15.3009
upperneck 19.7396 -14.7376 8.40801
head 10.1391 -7.04637 3.3902
rclavicle -4.13472e-014 2.14687e-014
rhumerus 32.0062 -8.31915 -73.9323
rradius 15.2874
rwrist 54.0466
rhand -51.5674 4.49578
rfingers 7.12502
rthumb -24.0928 -24.0116
lclavicle -4.13472e-014 2.14687e-014
lhumerus -26.1737 -43.6054 100.476
lradius 107.667
lwrist -12.9731
lhand -46.9328 16.2231
lfingers 7.12502
lthumb -19.6427 45.2507
rfemur -97.1325 -35.1199 32.412
rtibia 106.932
rfoot -30.0602 2.87358
rtoes 0.975571
lfemur -88.9894 1.56464 -26.8178
ltibia 99.9168
lfoot -27.6212 -8.45545
ltoes -1.13327
340
root 2.05089 12.4311 6.05989 24.1553 30.1161 5.94277
lowerback 47.4346 3.39293 8.06438
upperback 14.3387 8.63154 5.06499
thorax -4.95649 4.27857 -2.12044
lowerneck -12.5286 -12.0259 -15.1648
upperneck 19.8593 -14.7791 8.25817
head 10.1805 -7.06577 3.30549
rclavicle -3.49861e-014 3.18055e-014
rhumerus 31.8537 -8.11425 -73.5244
rradius 15.3341
rwrist 54.0304
rhand -51.7147 5.08641
rfingers 7.12502
rthumb -24.2339 -23.4022
lclavicle -3.49861e-014 3.18055e-014
lhumerus -26.2224 -43.5971 100.537
lradius 107.761
lwrist -13.0033
lhand -47.392 16.7174
lfingers 7.12502
lthumb -20.0841 45.6993
rfemur -97.1011 -35.1532 32.3996
rtibia 107.026
rfoot -30.0907 2.86423
rtoes 0.996143
lfemur -89.0081 1.56434 -26.785
ltibia 100.088
lfoot -27.7999 -8.86326
ltoes 1.60936
341
root 2.05749 12.4209 6.05311 24.1381 30.0339 6.035
lowerback 47.4002 3.40931 7.93033
upperback 14.3704 8.59373 5.11024
thorax -4.94149 4.25756 -1.99182
lowerneck -12.5403 -12.0244 -15.268
upperneck 19.8297 -14.764 8.30391
head 10.1831 -7.06215 3.3384
rclavicle -3.18055e-015 -4.21423e-014
rhumerus 31.695 -6.84278 -72.434
rradius 15.4253
rwrist 52.8943
rhand -51.998 5.31705
rfingers 7.12502
rthumb -24.5056 -23.1351
lclavicle -3.18055e-015 -4.21423e-014
lhumerus -26.1718 -43.4583 100.589
lradius 107.766
lwrist -13.1043
lhand -47.8715 16.3671
lfingers 7.12502
lthumb -20.545 45.2999
rfemur -97.0544 -35.1933 32.2574
rtibia 107.051
rfoot -30.1167 2.75719
rtoes 0.578258
lfemur -88.9793 1.54382 -26.9182
ltibia 100.183
lfoot -27.7728 -8.83866
ltoes 1.78577
342
root 2.064 12.4203 6.04683 24.0823 29.9819 6.01673
lowerback 47.3569 3.37145 7.89377
upperback 14.3807 8.53008 5.11473
thorax -4.92899 4.22797 -1.9427
lowerneck -12.5458 -11.9968 -15.399
upperneck 19.8389 -14.7399 8.47874
head 10.2104 -7.04378 3.42251
rclavicle -1.04958e-013 3.33958e-014
rhumerus 31.5545 -5.5217 -71.4929
rradius 15.5304
rwrist 51.7713
rhand -52.0545 5.148
rfingers 7.12502
rthumb -24.5598 -23.2968
lclavicle -1.04958e-013 3.33958e-014
lhumerus -26.1281 -43.3608 100.54
lradius 107.749
lwrist -13.0806
lhand -47.9016 15.8113
lfingers 7.12502
lthumb -20.5738 44.741
rfemur -96.9746 -35.1783 32.1983
rtibia 106.981
rfoot -30.1694 2.74365
rtoes 0.617087
lfemur -88.9509 1.54252 -26.9336
ltibia 100.192
lfoot -27.5934 -8.89573
ltoes 2.37363
343
root 2.06545 12.4333 6.04385 23.8327 29.9188 5.8145
lowerback 47.468 3.39696 7.91191
upperback 14.4232 8.5782 5.15946
thorax -4.90904 4.24893 -1.92344
lowerneck -12.636 -12.0067 -15.4783
upperneck 19.8217 -14.7724 8.67654
head 10.2488 -7.04347 3.49306
rclavicle 5.08889e-014 -3.33958e-014
rhumerus 31.6416 -5.52242 -71.5212
rradius 15.4653
rwrist 52.1757
rhand -51.9446 5.53637
rfingers 7.12502
rthumb -24.4544 -22.9227
lclavicle 5.08889e-014 -3.33958e-014
lhumerus -25.9902 -43.4055 100.428
lradius 107.662
lwrist -13.0313
lhand -47.8053 15.6175
lfingers 7.12502
lthumb -20.4813 44.5572
rfemur -96.5945 -35.0579 32.1857
rtibia 106.817
rfoot -30.2381 2.81611
rtoes 1.04495
lfemur -88.7505 1.70746 -26.7784
ltibia 100.141
lfoot -27.3341 -9.16597
ltoes 3.6785
344
root 2.0633 12.4605 6.04299 23.5279 29.6978 5.62461
lowerback 48.6548 3.41755 7.90498
upperback 13.5165 8.75018 4.88888
thorax -4.94611 4.29058 -1.86088
lowerneck -12.7355 -12.0095 -15.6066
upperneck 19.7944 -14.7888 8.89964
head 10.2897 -7.03676 3.58216
rclavicle 7.95139e-014 -1.01778e-013
rhumerus 31.7171 -5.72832 -71.6981
rradius 15.4729
rwrist 52.7609
rhand -51.9909 6.28431
rfingers 7.12502
rthumb -24.4988 -22.1687
lclavicle 7.95139e-014 -1.01778e-013
lhumerus -25.796 -43.3593 100.263
lradius 107.578
lwrist -13.209
lhand -47.3487 15.4876
lfingers 7.12502
lthumb -20.0425 44.4739
rfemur -96.0359 -34.7885 32.0428
rtibia 106.585
rfoot -30.3148 2.83479
rtoes 1.64305
lfemur -88.3662 2.04727 -26.6806
ltibia 99.9754
lfoot -27.1162 -9.47709
ltoes 4.64108
